<svg xmlns="http://www.w3.org/2000/svg" width="512" height="512" viewBox="0 0 512 512">
  <defs>
    <linearGradient id="g1" x1="0" x2="0" y1="0" y2="1">
      <stop stop-color="oklch(75% .172 150)" offset="20%" />
      <stop stop-color="oklch(70% .162 250)" offset="100%" />
    </linearGradient>
    <linearGradient id="g2" x1="0" x2="0" y1="0" y2="1">
      <stop stop-color="oklch(75% .172 150)" offset="0%" />
      <stop stop-color="oklch(97% .02 80)" offset="100%" />
    </linearGradient>
  </defs>
  <path fill="oklch(97% .02 80)" d="M281.56 30c3.05 0 4.7 1.78 4.43 5.59-1.93 27.35 2.83 54.87-1.66 82.09-1.9 11.55-5.47 22.82-8.39 34.2-.57 2.23-1.66 4.33-2.38 6.17 7.04 5.23 13.88 10.31 20.75 15.41 3.38-7.06 7.01-14.54 10.56-22.07 12.98-27.57 33.07-48.29 59.57-63.27 17.68-9.99 36.78-16.15 55.67-23.06 8.84-3.23 17.4-7.29 25.87-11.41 2.58-1.25 4.83-1.92 6.76-1.93 3.54 0 5.97 2.27 7.29 7.41 1.33 5.22 1.25 11.22.18 16.55-6.34 31.69-17.87 61.47-34.69 89.08-10.12 16.61-23.94 29.85-41.35 38.45-17.15 8.48-35.01 15.52-52.57 23.17-1.5.65-3.06 1.17-4.41 1.68 4.31 9.24 8.74 18.28 12.78 27.48 13.88 31.62 21.38 64.98 25.83 99.02 3.12 23.9 6.07 47.87 7.57 71.91 1.99 32.12 2.69 64.34 3.57 96.52.52 19.03.31 38.08.42 57.13h-10.7c.22-31.1 1.21-62.22.42-93.3-.7-27.78-2.85-55.56-5.32-83.25-2.04-22.89-5.01-45.72-8.43-68.45-4.09-27.18-11.54-53.53-22.91-78.63-3.83-8.45-8.38-16.57-12.74-25.12-6.87 2.86-13.26 5.52-20.48 8.53 1.31-1.51 2.02-2.8 3.12-3.54 5.9-3.96 11.59-8.39 17.91-11.52 15.1-7.47 30.56-14.18 45.78-21.4 25.85-12.27 46.18-30.36 60.28-55.64 13.98-25.05 22.99-51.7 28.28-79.73.43-2.29-.25-4.79-.45-7.63-6.05 3.31-10.87 6.54-16.13 8.71-14.53 6.01-29.4 11.2-43.83 17.42-20.5 8.84-39.82 19.75-55.36 36.18-14.25 15.07-25.3 32.28-33.58 51.34-4.53 10.42-9.41 20.7-14.73 30.74-2.76 5.21-6.8 9.73-10.26 14.56-.41-.25-.83-.5-1.24-.75 1.71-4.08 3.48-8.15 5.13-12.25 2.7-6.73 5.28-13.51 8.03-20.22.97-2.36.43-4.02-1.23-5.88-10.82-12.16-23.98-16.79-38.77-16.79-3.43 0-6.94.25-10.54.71-15.19 1.95-28.58 8.32-41.54 15.77-30.12 17.3-57.66 38.04-81.53 63.36-21.25 22.55-38.22 47.96-49.89 76.78-.61 1.51-1.13 3.06-1.42 3.84 2.38 3.06 4.55 5.59 6.35 8.35.47.71-.18 2.16-.32 3.27-.89-.44-1.89-.74-2.63-1.35-1.65-1.36-3.16-2.87-5.21-4.77-.79 2.93-1.37 5.13-1.98 7.4 4.51 1.42 5.37 4.85 5.13 8.77-.18 2.87-1.11 4.34-2.83 4.34-1.02 0-2.32-.52-3.91-1.57-1.69 8.64-.79 16.93 1.2 25.15 5.53 22.76 22.99 35.26 47.08 35.26 1.08 0 2.17-.03 3.28-.08 25.14-1.15 46.31-11.59 65.64-26.38 7.87-6.02 14.57-13.62 21.53-20.77 1.91-1.96 3.18-4.75 4.16-7.38 1.82-4.87 4.97-7.57 9.41-7.57 1.06 0 2.19.15 3.4.47 2.86.75 5.66 2.05 8.2 3.59.88.53.88 2.51 1.29 3.83-1.2.27-2.44.84-3.6.84-.13 0-.27 0-.4-.02-1.57-.2-3.03-1.17-4.59-1.66-.82-.26-1.57-.39-2.25-.39-1.88 0-3.33 1.01-4.84 3.2-19.92 29.04-46.36 49.38-80.64 58.61-7.02 1.89-14.08 2.99-21.11 2.99-8.2 0-16.37-1.5-24.43-5-.3.27-.59.55-.89.82 1.26 2.41 2.21 5.05 3.82 7.2 5.94 7.95 14.59 10.4 23.94 11.87 2.34.36 4.64.52 6.93.52 8.14 0 16.01-1.97 23.95-3.55 17.02-3.37 34.04-5.96 51.36-5.96 4.08 0 8.16.14 12.28.45 2.97.22 5.9.34 8.77.34 34.42 0 61.48-15.98 81.36-44.85 12.41-18.02 16.19-38.82 12.28-60.52-2.15-11.95-5.24-23.73-7.79-35.04 12.49 15.15 20.21 43.13 13.18 70.91-11.72 46.3-43.29 70.08-89.53 77.79.16 3.23.11 6.76.66 10.21.16 1.04 1.83 2.15 3.05 2.67 4.1 1.76 8.2 2.47 12.29 2.47 5.58 0 11.13-1.31 16.63-3.05 12.54-3.96 22.92-11.56 32.67-20.11 16.37-14.36 28.87-31.79 39.97-50.34 1.66-2.76 3.41-5.47 5.93-7.84-.54 1.78-.84 3.67-1.64 5.32-13.75 28.36-31.96 53.07-59.04 70.13-10.45 6.58-21.85 10.44-34.11 10.44-1.9 0-3.83-.09-5.77-.28-3.22-.32-6.38-1.38-10.01-2.2.29 6 .46 11.75.97 17.46.08.95 1.44 2.16 2.49 2.6 4.77 2.01 9.57 2.88 14.36 2.88 5.56 0 11.11-1.17 16.55-3.1 23.57-8.33 42.52-23.52 59.55-41.34 5-5.24 9.62-10.84 14.88-16.1-.57 1.28-.95 2.68-1.73 3.81-17.36 25.18-38.5 45.92-67.54 57.4-6.76 2.67-13.53 4.11-20.44 4.11-5.84 0-11.78-1.03-17.88-3.22.28 4.91.32 9.35.81 13.75 2.52 22.73 5.14 45.45 7.74 68.17.88 7.74 1.78 15.48 2.67 23.21h-9.87c-1.62-14.15-3.37-28.29-4.81-42.47-1.62-15.95-3.25-31.9-4.32-47.89-1.2-18.04-1.78-36.12-2.63-54.19-.04-.81-.11-1.61-.19-2.84-7.15-.48-14.22-1-21.29-1.42-1.94-.11-3.88-.17-5.8-.17-16.53 0-32.49 3.97-48.49 7.82-7.61 1.83-15.24 3.18-22.89 3.18-5.87 0-11.75-.8-17.64-2.78-10.27-3.46-17.94-9.8-21.9-20.12-.49-1.27-1.24-2.73-1-3.93 1.05-5.16-2.17-7.66-5.45-10.75-11.42-10.74-16.45-24.52-18.11-39.85-2.47-22.78 5.06-43.12 14.55-63.14 21.03-44.4 54.38-77.83 93.77-105.94 17.52-12.5 35.13-25.09 54.95-33.57 8.13-3.48 9.98-7.42 9.65-15.68-.82-20.26 4.14-39.54 11.83-58.31 7.19-17.56 16.3-33.78 29.18-47.76 3.88-4.21 7.7-8.64 13.71-10.03.9-.21 1.73-.31 2.47-.31m-3.23 9.35c-29.38 33.04-43.93 71.67-44.51 115.96 5.9-.54 11.16-1.02 17.09-1.57 1-12.14 2.14-24.24 2.95-36.37 1.07-16.03 2.24-32.01 8.97-46.93 1.25-2.77 2.74-5.43 4.12-8.14.37.12.75.25 1.12.37-10.05 29.91-6.39 61.3-10.66 92.03 1.43.37 2.79 1.1 4.03 1.1 1.13 0 2.16-.61 3.05-2.66 8.07-18.61 11.9-38.11 12.33-58.27.31-14.23-.07-28.47.1-42.7.05-4.28.91-8.55 1.4-12.82m3.2-14.32c-1.11 0-2.32.15-3.6.44-7.23 1.67-11.73 6.57-15.71 10.9l-.56.61c-12.07 13.11-21.93 29.22-30.13 49.26-9.09 22.21-12.96 41.4-12.19 60.41.27 6.65-.78 8.38-6.62 10.88-20.22 8.66-38.23 21.5-55.64 33.93l-.24.17c-21.55 15.38-39.4 30.93-54.56 47.56-17.16 18.81-30.52 38.54-40.82 60.31-9.36 19.76-17.65 41.4-15 65.82 1.99 18.32 8.42 32.37 19.66 42.95.25.24.5.47.75.7 3.17 2.94 3.59 3.65 3.23 5.41-.5 2.47.4 4.68 1 6.14.08.2.16.39.23.58 4.28 11.16 12.68 18.93 24.97 23.07 6.07 2.05 12.36 3.04 19.23 3.04s14.52-1.02 24.06-3.32l1.51-.36c15.63-3.77 30.39-7.32 45.81-7.32 1.86 0 3.71.05 5.51.16 4.83.28 9.77.63 14.54.96.77.05 1.55.11 2.32.16.23 4.99.45 10.03.65 14.93.53 12.37 1.07 25.15 1.91 37.74 1.04 15.61 2.64 31.4 4.19 46.68l.14 1.38c1 9.87 2.17 19.87 3.31 29.54.51 4.33 1.01 8.66 1.51 12.99l.51 4.43h19.94l-.64-5.57-.84-7.26c-.61-5.32-1.23-10.63-1.83-15.95l-1.8-15.78c-1.96-17.17-4-34.91-5.93-52.37-.23-2.08-.36-4.21-.46-6.43 4.2.97 8.4 1.45 12.57 1.45 7.39 0 14.68-1.46 22.28-4.46 27.19-10.75 49.38-29.57 69.82-59.21.87-1.26 1.37-2.55 1.77-3.6.13-.34.26-.68.41-1.01l10.99-24.68-19.09 19.11c-3.09 3.09-5.96 6.3-8.74 9.39-2.12 2.36-4.12 4.59-6.22 6.79-19.42 20.32-37.72 33.06-57.6 40.08-5.36 1.89-10.23 2.81-14.89 2.81-4.23 0-8.15-.76-11.99-2.31-.24-3.01-.39-6.04-.53-9.17 1.38.31 2.78.57 4.23.72 2.08.2 4.19.31 6.26.31 12.6 0 24.97-3.77 36.78-11.21 25.06-15.79 44.97-39.4 60.87-72.18.77-1.58 1.17-3.16 1.53-4.55.14-.54.27-1.05.41-1.51l5.42-17.96-13.64 12.89c-3.08 2.91-5.11 6.12-6.78 8.91-13.05 21.79-25.07 36.95-38.98 49.15-8.24 7.23-18.34 15.14-30.87 19.1-6.18 1.95-10.84 2.82-15.13 2.82-3.71 0-7.08-.67-10.31-2.06-.09-.04-.17-.08-.26-.12-.15-1.31-.22-2.66-.27-4.01 22.62-4.35 41.37-12.66 55.77-24.74 16.25-13.63 27.5-32.46 33.45-55.97 7.78-30.73-1.51-59.97-14.17-75.31l-13.34-16.17 4.6 20.45c.79 3.51 1.65 7.12 2.47 10.62 1.87 7.9 3.81 16.07 5.27 24.21 3.8 21.1-.06 40.21-11.48 56.79-19.51 28.32-45.5 42.69-77.24 42.69-2.74 0-5.56-.11-8.39-.32-4.11-.31-8.37-.47-12.65-.47-19.29 0-38.1 3.24-52.33 6.06-1.36.27-2.71.55-4.06.83-6.51 1.35-12.66 2.62-18.91 2.62-2.16 0-4.17-.15-6.16-.46-7.12-1.11-12.96-2.73-17.41-6.43 4.61.99 9.35 1.49 14.2 1.49 7.07 0 14.61-1.07 22.41-3.17 34.09-9.18 62.17-29.57 83.46-60.61.42-.61.7-.9.84-1.02.12.02.32.06.63.15.33.1.77.3 1.24.51 1.12.5 2.52 1.13 4.22 1.34.33.04.67.06 1.02.06 1.52 0 2.8-.4 3.84-.71.33-.1.65-.2.87-.25l5.25-1.19-1.57-5.15c-.04-.14-.11-.54-.16-.8-.29-1.61-.79-4.31-3.32-5.84-3.21-1.94-6.41-3.33-9.52-4.15-1.6-.42-3.17-.63-4.66-.63-3.75 0-10.57 1.41-14.09 10.82-.65 1.75-1.68 4.23-3.06 5.65-1.44 1.48-2.88 2.98-4.31 4.49-5.28 5.53-10.73 11.25-16.68 15.8-21.32 16.32-41.28 24.38-62.83 25.36-1.02.05-2.05.07-3.05.07-10.99 0-20.25-2.73-27.53-8.12-7.3-5.41-12.25-13.25-14.7-23.32-1.57-6.46-2.19-12.12-1.87-17.41 1.68-.08 7.04-.97 7.53-9.03.11-1.8 0-3.38-.28-4.77l4.09 2.03.86-7.01c.01-.08.08-.35.12-.53.32-1.32.93-3.78-.59-6.08-1.43-2.18-3.01-4.16-4.68-6.26-.07-.09-.14-.18-.21-.26.13-.35.27-.7.41-1.05 10.99-27.16 27.44-52.47 48.89-75.22 22.52-23.89 48.81-44.32 80.38-62.45 11.15-6.4 24.58-13.21 39.69-15.15 3.46-.44 6.79-.67 9.9-.67 14.53 0 25.99 4.94 35.04 15.12.2.23.32.39.4.5-.02.04-.03.1-.06.16-1.61 3.93-3.19 7.93-4.7 11.8-1.09 2.78-2.22 5.65-3.34 8.45-1.12 2.79-2.33 5.63-3.49 8.37-.54 1.27-1.08 2.54-1.61 3.81l-1.67 3.99 3.7 2.23.9.54.34.2 3.95 2.38 2.69-3.75c1.03-1.43 2.1-2.83 3.24-4.31 2.59-3.37 5.28-6.86 7.37-10.82 5.12-9.66 10.13-20.12 14.89-31.08 8.21-18.9 19.19-35.68 32.63-49.89 12.93-13.67 30-24.8 53.71-35.02 7.95-3.43 16.22-6.61 24.22-9.68 6.42-2.47 13.06-5.02 19.54-7.7 3.25-1.35 6.28-3.02 9.41-4.82-5.5 28.25-14.47 53.26-27.39 76.41-13.28 23.8-32.27 41.32-58.06 53.56-6.12 2.91-12.4 5.78-18.48 8.57-9 4.12-18.32 8.39-27.37 12.87-5 2.47-9.54 5.65-13.93 8.71-1.49 1.04-3.04 2.12-4.55 3.14-1.4.94-2.32 2.13-3.12 3.18-.33.43-.64.83-.99 1.24l-13.81 16.01 19.52-8.13 9.97-4.15 6.27-2.61c.69 1.33 1.38 2.64 2.06 3.94 3.03 5.77 5.89 11.21 8.45 16.86 10.82 23.87 18.4 49.88 22.52 77.31 3.82 25.4 6.57 47.7 8.39 68.15 2.21 24.8 4.57 54.04 5.3 82.93.54 21.55.23 43.54-.08 64.81-.13 9.28-.27 18.88-.34 28.33l-.04 5.03h20.76l-.03-5.03c-.04-5.89-.04-11.89-.05-17.7-.01-12.95-.02-26.34-.38-39.54-.11-3.88-.21-7.75-.31-11.63-.74-27.89-1.51-56.72-3.27-85.06-1.54-24.77-4.6-49.28-7.6-72.25-5.16-39.51-13.49-71.41-26.21-100.39-2.8-6.37-5.82-12.75-8.74-18.92-.6-1.27-1.21-2.54-1.81-3.82 5.09-2.22 10.3-4.42 15.34-6.56 12.23-5.18 24.88-10.54 37.04-16.54 17.87-8.83 32.47-22.4 43.4-40.34 16.97-27.84 28.85-58.36 35.32-90.7 1.29-6.45 1.21-13.11-.24-18.77-2.48-9.72-8.66-11.17-12.13-11.17-2.65 0-5.58.79-8.94 2.43-8.46 4.11-16.77 8.06-25.41 11.21-2.99 1.09-5.99 2.17-8.99 3.24-15.83 5.68-32.19 11.54-47.43 20.15-27.85 15.74-48.59 37.78-61.64 65.49-2.43 5.17-4.92 10.35-7.33 15.35-.2.41-.39.82-.59 1.22l-2.96-2.2-9.77-7.26c.41-1.01.79-2.09 1.09-3.26.8-3.13 1.68-6.33 2.52-9.41 2.24-8.17 4.55-16.63 5.96-25.21 2.68-16.27 2.15-32.67 1.65-48.54-.36-11.2-.73-22.78.06-34.01.24-3.41-.58-6.15-2.43-8.14-1.19-1.28-3.37-2.8-6.98-2.8Zm-11.68 32.95c.68-.95 1.37-1.9 2.07-2.84 0 1.17-.01 2.34-.02 3.52zm-5.95 82.88c.51-6.68.8-13.34 1.09-19.87.82-18.75 1.61-36.51 6.92-53.89 0 1.36.01 2.72.02 4.07.04 7.74.08 15.74-.09 23.58-.35 16.25-3.01 31.71-7.94 46.11m-24.92 8.95c.8-19.49 4.49-37.94 10.97-54.92.55-1.43 1.11-2.85 1.7-4.27-1.61 9.04-2.21 18.03-2.77 26.41-.56 8.35-1.29 16.85-1.99 25.07l-.6 7.04-.33.03z"/>
  <path fill="url(#g1)" d="M366.67 580.15H235.85c-.89-7.74-1.79-15.48-2.67-23.21-2.59-22.72-5.22-45.44-7.74-68.17-.49-4.39-.53-8.84-.81-13.75 13.33 4.78 25.85 4.04 38.32-.89 29.04-11.48 50.18-32.22 67.54-57.4.78-1.13 1.16-2.53 1.73-3.81-5.26 5.26-9.88 10.86-14.88 16.1-17.03 17.82-35.98 33.02-59.55 41.34-10.14 3.58-20.61 4.57-30.92.21-1.05-.44-2.41-1.65-2.49-2.6-.5-5.71-.67-11.45-.97-17.46 3.64.82 6.79 1.89 10.01 2.2 14.48 1.41 27.82-2.55 39.89-10.16 27.08-17.06 45.28-41.77 59.04-70.13.8-1.65 1.11-3.54 1.64-5.32-2.51 2.37-4.27 5.08-5.93 7.84-11.1 18.54-23.6 35.98-39.97 50.34-9.74 8.55-20.12 16.15-32.67 20.11-9.54 3.01-19.22 4.75-28.92.58-1.22-.52-2.89-1.63-3.05-2.67-.54-3.44-.49-6.98-.66-10.21 46.24-7.7 77.81-31.48 89.53-77.79 7.03-27.78-.69-55.76-13.18-70.91 2.55 11.31 5.64 23.09 7.79 35.04 3.91 21.7.13 42.5-12.28 60.52-21.54 31.28-51.5 47.43-90.12 44.52-21.6-1.63-42.62 1.34-63.64 5.51-10.17 2.02-20.24 4.69-30.88 3.03-9.36-1.46-18-3.91-23.94-11.87-1.61-2.15-2.56-4.78-3.82-7.2.3-.27.59-.55.89-.82 14.98 6.5 30.33 6.1 45.54 2 34.28-9.23 60.72-29.57 80.64-58.61 2.05-2.99 4-3.78 7.09-2.81 1.55.49 3.01 1.46 4.59 1.66 1.28.16 2.66-.51 4-.82-.4-1.32-.41-3.3-1.29-3.83-2.54-1.53-5.33-2.84-8.2-3.59-6.25-1.63-10.55 1.07-12.81 7.1-.98 2.63-2.25 5.42-4.16 7.38-6.96 7.14-13.66 14.74-21.53 20.77-19.33 14.8-40.5 25.24-65.64 26.38-25.78 1.18-44.58-11.41-50.36-35.18-2-8.22-2.89-16.51-1.2-25.15 4.26 2.82 6.46 1.8 6.74-2.78.24-3.92-.63-7.35-5.13-8.77.61-2.27 1.2-4.47 1.98-7.4 2.05 1.89 3.57 3.41 5.21 4.77.74.61 1.75.91 2.63 1.35.14-1.11.79-2.55.32-3.27-1.81-2.76-3.97-5.28-6.35-8.35.29-.78.81-2.33 1.42-3.84 11.66-28.82 28.64-54.23 49.89-76.78 23.87-25.32 51.41-46.06 81.53-63.36 12.97-7.45 26.36-13.82 41.54-15.77 19.11-2.45 35.98 1.1 49.31 16.08 1.66 1.86 2.2 3.51 1.23 5.88-2.76 6.71-5.33 13.49-8.03 20.22-1.65 4.11-3.42 8.17-5.13 12.25l1.24.75c3.46-4.83 7.51-9.36 10.26-14.56 5.31-10.03 10.2-20.32 14.73-30.74 8.28-19.06 19.33-36.27 33.58-51.34 15.54-16.43 34.87-27.34 55.36-36.18 14.43-6.22 29.31-11.41 43.84-17.42 5.25-2.17 10.07-5.4 16.13-8.71.2 2.84.88 5.34.45 7.63-5.29 28.03-14.3 54.67-28.28 79.73-14.1 25.28-34.43 43.37-60.28 55.64-15.22 7.22-30.68 13.94-45.78 21.4-6.33 3.13-12.01 7.56-17.91 11.52-1.09.73-1.81 2.02-3.12 3.54 7.23-3.01 13.62-5.67 20.48-8.53 4.36 8.55 8.91 16.67 12.74 25.12 11.37 25.1 18.82 51.45 22.91 78.63 3.42 22.73 6.39 45.56 8.43 68.45 2.47 27.69 4.62 55.47 5.32 83.25.79 31.08-.2 62.2-.42 93.3ZM235.36 266.61c-1.22-.84-1.69-1.31-2.26-1.54-9-3.62-18.29-3.82-27.36-.95-6.84 2.17-11.32 7.24-13.64 14.29-4.55 13.79-2.43 27.01 2.81 40.04.46 1.13 1.29 2.11 1.95 3.17.4-.14.79-.27 1.19-.41-.18-2.68-.37-5.36-.56-8.17 11.92 3.97 22.43.87 29.72-8.02 9.98-12.17 4.84-25.08-1.65-37.44 3.14-.31 6.06-.61 9.81-.98ZM439.08 77.87c-.21-.4-.43-.79-.64-1.19-.64.14-1.3.19-1.91.42-21.64 8.07-42.37 18.02-61.37 31.19-23.86 16.54-39.48 39.69-50.34 66.1-6.7 16.28-14 32.11-24.5 46.32-.23.32-.38.7-.85 1.61 1.15-.57 1.66-.79 2.13-1.06 12.89-7.54 19.31-20.18 25.63-32.82 3.54-7.08 6-14.73 9.93-21.56 5.59-9.7 11.23-19.58 18.36-28.12 17.08-20.46 38.58-35.51 62.07-47.9 7.39-3.9 14.35-8.63 21.51-12.98ZM157.46 303.04c.55-.1 1.11-.19 1.66-.29 0-1.97.15-3.95-.03-5.9-1.2-13.04.61-25.59 5.42-37.81 11.03-27.99 40.12-38.6 66.47-24.1 1.44.79 2.93 1.5 4.99 2.54-1.65-5.11-5.36-8.51-11.05-10.82-30.15-12.27-55.5 6.23-64.16 26-6.27 14.32-7.41 29.01-5.36 44.19.28 2.11 1.34 4.12 2.04 6.18Zm77.97-48.53 1.13-1.08c-1.18-1.46-2.16-3.15-3.56-4.35-9.42-8.01-27.35-7.61-36.53.78-.7.64-.98 1.76-1.45 2.65 1.08.08 2.22.42 3.23.19 5.41-1.27 10.72-3.19 16.19-3.93 7.59-1.03 14.42 2.1 20.98 5.73Zm-130.19 94.04c.01-4.07-2.46-7.26-5.68-7.31-3.31-.05-5.57 2.99-5.7 7.69-.1 3.61 2.59 6.88 5.65 6.86 3.23-.02 5.71-3.15 5.72-7.24Zm.03-15.09.36-1.38c-1.3-.98-2.47-2.49-3.93-2.85-5.2-1.29-8.94 1.49-12.02 5.23-1.44 1.75-2.81 3.82-.2 6.68 4.14-4.75 8.76-8.71 15.78-7.68Z"/>
  <path fill="oklch(20% .015 275)" d="m364.15 582.65.02-2.52c.07-9.44.21-19.03.34-28.31.31-21.29.63-43.3.08-64.91-.73-28.95-3.09-58.25-5.31-83.09-1.83-20.5-4.58-42.85-8.41-68.3-4.16-27.66-11.81-53.89-22.72-77.97-2.59-5.72-5.47-11.2-8.52-17-1.04-1.97-2.08-3.95-3.11-5.96L288.4 246.3l6.91-8.01c.41-.48.76-.93 1.08-1.35.76-.99 1.48-1.92 2.54-2.63 1.54-1.03 3.06-2.1 4.59-3.16 4.32-3.02 8.78-6.13 13.61-8.52 9.03-4.46 18.32-8.72 27.31-12.84 6.08-2.79 12.37-5.67 18.5-8.58 26.27-12.47 45.63-30.33 59.17-54.6 13.33-23.88 22.49-49.72 28.01-78.97.17-.9.09-1.95-.05-3.14-.77.44-1.53.88-2.27 1.31-3.68 2.14-7.15 4.15-10.85 5.68-6.46 2.67-13.08 5.22-19.49 7.68-8.02 3.08-16.32 6.27-24.31 9.72-24.03 10.36-41.36 21.67-54.54 35.6-13.64 14.42-24.78 31.45-33.11 50.61-4.74 10.91-9.72 21.31-14.81 30.91-2 3.77-4.61 7.17-7.14 10.46-1.1 1.43-2.24 2.92-3.3 4.39l-1.35 1.88-5.07-3.06.84-2c.53-1.26 1.06-2.52 1.6-3.79 1.17-2.76 2.38-5.62 3.52-8.43 1.13-2.82 2.24-5.65 3.35-8.48 1.51-3.86 3.08-7.85 4.69-11.76.5-1.2.45-1.88-.78-3.27-9.55-10.74-21.62-15.95-36.91-15.95-3.21 0-6.65.23-10.22.69-15.55 1.99-29.26 8.93-40.62 15.46-31.79 18.26-58.27 38.84-80.95 62.91-21.66 22.98-38.28 48.55-49.39 76-.34.84-.66 1.72-.92 2.45.37.46.73.91 1.08 1.36 1.64 2.05 3.18 3.99 4.55 6.08.92 1.4.53 2.97.25 4.12-.07.3-.15.62-.18.82l-.43 3.5-3.16-1.57c-.23-.12-.48-.22-.72-.33-.75-.32-1.6-.68-2.39-1.33-.78-.65-1.52-1.31-2.29-2.02l-.35 1.29c3.39 1.91 4.96 5.39 4.66 10.36-.37 6.04-3.85 6.69-5.32 6.69-.62 0-1.28-.11-1.97-.32-.76 6.31-.2 13.01 1.69 20.81 5.15 21.2 21.43 33.35 44.66 33.35 1.04 0 2.1-.02 3.16-.07 22.08-1.01 42.5-9.23 64.24-25.87 6.1-4.67 11.62-10.46 16.96-16.05 1.43-1.5 2.86-2.99 4.3-4.47 1.69-1.73 2.82-4.39 3.61-6.51 2.22-5.93 6.39-9.2 11.75-9.2 1.28 0 2.63.19 4.03.55 2.88.75 5.86 2.05 8.86 3.87 1.57.95 1.89 2.72 2.15 4.15.07.4.15.81.23 1.09l.79 2.57-2.62.6c-.35.08-.7.19-1.06.3-.91.28-1.95.6-3.09.6-.24 0-.48-.01-.71-.04-1.33-.17-2.49-.68-3.51-1.14-.54-.24-1.05-.47-1.51-.61-.58-.18-1.09-.28-1.5-.28-.64 0-1.44.16-2.78 2.12-20.94 30.54-48.55 50.59-82.05 59.61-7.59 2.04-14.91 3.08-21.76 3.08-7.28 0-14.33-1.17-21-3.48.46.9.94 1.75 1.5 2.5 5.2 6.96 12.69 9.39 22.33 10.89 2.12.33 4.26.49 6.55.49 6.5 0 12.78-1.3 19.42-2.67 1.35-.28 2.69-.56 4.04-.83 14.12-2.8 32.78-6.01 51.85-6.01 4.22 0 8.41.16 12.46.46 2.89.22 5.78.33 8.58.33 32.62 0 59.3-14.73 79.3-43.77 11.81-17.14 15.8-36.88 11.88-58.65-1.48-8.21-3.42-16.41-5.3-24.35-.84-3.57-1.68-7.1-2.47-10.59l-2.3-10.22 6.67 8.08c12.26 14.86 21.24 43.23 13.68 73.11-5.82 23-16.8 41.39-32.63 54.67-14.51 12.17-33.59 20.44-56.73 24.59 0 .18.01.35.02.53.07 2.29.15 4.66.49 6.93.25.27.9.72 1.61 1.03 3.55 1.52 7.25 2.27 11.3 2.27 4.55 0 9.45-.91 15.88-2.94 12.97-4.1 23.34-12.21 31.77-19.61 14.11-12.38 26.29-27.72 39.47-49.74 1.58-2.64 3.51-5.68 6.35-8.37l6.82-6.44-2.71 8.98c-.16.53-.3 1.07-.44 1.62-.34 1.34-.7 2.72-1.35 4.08-15.69 32.34-35.3 55.62-59.95 71.15-11.4 7.18-23.33 10.83-35.45 10.83-1.99 0-4.01-.1-6.02-.29-2.37-.23-4.62-.81-7-1.43l-.12-.03c.02.39.04.79.05 1.18.19 4.34.37 8.45.73 12.58.19.24.64.62.99.78 4.22 1.78 8.73 2.69 13.39 2.69 4.95 0 10.09-.97 15.72-2.96 20.26-7.16 38.87-20.1 58.57-40.71 2.12-2.22 4.23-4.57 6.27-6.84 2.76-3.07 5.61-6.25 8.65-9.3l9.55-9.56-5.5 12.34c-.16.37-.31.75-.46 1.13-.38.97-.8 2.07-1.5 3.08-20.15 29.22-41.97 47.74-68.68 58.31-7.3 2.88-14.28 4.29-21.36 4.29-5.03 0-10.14-.75-15.21-2.22.01.34.03.69.04 1.03.13 3.12.26 6.06.58 8.95 1.93 17.41 3.95 35.1 5.91 52.22l1.82 15.95 1.86 16.21 1.13 9.79h-14.91l-.25-2.22c-.5-4.34-1-8.68-1.51-13.01-1.13-9.66-2.3-19.64-3.3-29.48l-.14-1.4c-1.55-15.25-3.14-31.01-4.18-46.57-.84-12.55-1.38-25.32-1.91-37.67-.23-5.52-.47-11.05-.73-16.57 0-.2-.02-.4-.03-.61-1.5-.1-3-.21-4.5-.31-4.79-.33-9.74-.67-14.6-.96-1.85-.11-3.75-.16-5.65-.16-15.71 0-31.31 3.76-46.39 7.39l-1.51.36c-9.34 2.25-16.58 3.25-23.47 3.25-6.6 0-12.63-.95-18.43-2.91-11.55-3.89-19.43-11.16-23.43-21.59-.08-.21-.17-.42-.25-.63-.54-1.32-1.21-2.96-.86-4.69.66-3.26-.82-4.81-3.98-7.75l-.74-.69c-10.79-10.15-16.96-23.7-18.89-41.4-2.58-23.8 5.57-45.06 14.77-64.48C83 259.96 113.06 226 158.35 193.68l.24-.17c17.3-12.34 35.19-25.11 55.17-33.66 7.24-3.1 8.42-6.17 8.14-13.28-.75-18.63 3.06-37.5 12.01-59.36 8.08-19.75 17.78-35.62 29.65-48.51l.56-.61c3.73-4.06 7.95-8.67 14.43-10.16 1.09-.25 2.11-.38 3.03-.38 2.71 0 4.3 1.09 5.15 2.01 1.37 1.46 1.96 3.57 1.77 6.26-.8 11.36-.43 23.01-.07 34.27.5 15.74 1.03 32.02-1.61 48.05-1.39 8.46-3.69 16.85-5.91 24.97-.85 3.1-1.72 6.3-2.53 9.45-.44 1.71-1.13 3.3-1.74 4.72l16.74 12.43c.63-1.31 1.27-2.64 1.91-3.98 2.4-5 4.89-10.17 7.33-15.34 12.82-27.24 33.21-48.9 60.6-64.38 15.05-8.51 31.32-14.34 47.05-19.98 3-1.08 6-2.15 9-3.25 8.74-3.2 17.12-7.17 25.64-11.31 3.02-1.46 5.59-2.18 7.85-2.18 4.87 0 8.13 3.13 9.71 9.29 1.35 5.3 1.43 11.57.21 17.66-6.41 32.05-18.19 62.3-35 89.89-10.68 17.52-24.93 30.78-42.37 39.4-12.1 5.98-24.72 11.32-36.92 16.49-5.17 2.19-10.53 4.46-15.76 6.74-.66.29-1.34.55-1.99.8.98 2.08 1.96 4.15 2.94 6.21 2.92 6.16 5.93 12.52 8.71 18.86 12.62 28.75 20.89 60.44 26.02 99.71 3 22.93 6.05 47.38 7.58 72.08 1.76 28.3 2.52 57.11 3.26 84.97l.31 11.64c.36 13.16.37 26.54.38 39.47 0 5.9 0 11.81.05 17.71l.02 2.52h-15.73ZM260.21 152.94c.5.17.99.33 1.28.33s.34-.2.75-1.16c7.61-17.53 11.69-36.82 12.13-57.33.17-7.87.13-15.89.09-23.65-.03-6.23-.06-12.68.01-19.02.02-1.58.14-3.16.31-4.72-3.15 3.87-6.1 7.84-8.86 11.89l5.36 1.77-.8 2.38c-6.26 18.62-7.13 38.35-7.97 57.42-.46 10.52-.94 21.38-2.31 32.08Zm4.84-92.37c-18.11 27.05-27.72 57.87-28.64 91.96l12.22-1.12c.25-3.05.52-6.1.78-9.14.71-8.23 1.44-16.73 2-25.1 1.06-15.84 2.16-32.22 9.19-47.8.88-1.96 1.89-3.87 2.85-5.71.44-.84.88-1.68 1.32-2.53l.29-.56Z"/>
  <path fill="oklch(20% .015 275)" d="M235.36 266.61c-3.75.38-6.67.67-9.81.98 6.49 12.35 11.62 25.26 1.65 37.44-7.29 8.9-17.8 11.99-29.72 8.02.19 2.81.38 5.49.56 8.17-.4.14-.79.27-1.19.41-.66-1.05-1.5-2.03-1.95-3.17-5.24-13.04-7.36-26.26-2.81-40.04 2.33-7.05 6.8-12.12 13.64-14.29 9.07-2.88 18.36-2.67 27.36.95.57.23 1.04.7 2.26 1.54Zm-17.57 7.34c-4.11-.16-8.78 4.04-8.89 8-.1 3.5 3.82 6.77 8.3 6.91 4.35.14 7.93-2.94 8.08-6.94.17-4.44-2.99-7.81-7.49-7.98Zm-22.89 14.42c1.47 1.56 2.98 3.51 3.23 3.36 1.49-.9 2.69-2.28 3.99-3.49-1.28-1-2.44-2.41-3.89-2.83-.65-.19-1.87 1.61-3.32 2.96Zm244.18-210.5c-7.16 4.35-14.11 9.08-21.51 12.98-23.49 12.39-44.99 27.45-62.07 47.9-7.13 8.54-12.77 18.43-18.36 28.12-3.93 6.83-6.39 14.48-9.93 21.56-6.31 12.64-12.73 25.28-25.63 32.82-.47.27-.97.49-2.13 1.06.47-.9.61-1.29.85-1.61 10.5-14.21 17.8-30.04 24.5-46.32 10.87-26.42 26.48-49.56 50.34-66.1 19-13.17 39.73-23.12 61.37-31.19.6-.23 1.27-.28 1.91-.42.21.4.43.79.64 1.19Z"/>
  <path fill="oklch(20% .015 275)" d="M157.46 303.04c-.7-2.06-1.76-4.07-2.04-6.18-2.05-15.17-.9-29.87 5.36-44.19 8.65-19.77 34.01-38.27 64.16-26 5.69 2.31 9.39 5.71 11.05 10.82-2.06-1.05-3.55-1.75-4.99-2.54-26.35-14.5-55.44-3.9-66.47 24.1-4.81 12.21-6.62 24.77-5.42 37.81.18 1.95.03 3.93.03 5.9-.55.1-1.11.19-1.66.29Z"/>
  <path fill="oklch(20% .015 275)" d="M235.43 254.51c-6.56-3.63-13.39-6.76-20.98-5.73-5.47.74-10.78 2.66-16.19 3.93-1.01.24-2.15-.11-3.23-.19.47-.89.75-2.01 1.45-2.65 9.18-8.39 27.11-8.79 36.53-.78 1.4 1.19 2.38 2.89 3.56 4.35l-1.13 1.08Zm-130.19 94.04c-.01 4.09-2.49 7.23-5.72 7.24-3.06.02-5.75-3.25-5.65-6.86.12-4.7 2.38-7.74 5.7-7.69 3.21.05 5.69 3.24 5.68 7.31Zm.03-15.09c-7.02-1.03-11.64 2.93-15.78 7.68-2.61-2.86-1.24-4.93.2-6.68 3.08-3.74 6.82-6.53 12.02-5.23 1.46.36 2.63 1.87 3.93 2.85l-.36 1.38Z"/>
  <path fill="url(#g2)" d="M278.37 39.32c-.49 4.27-1.35 8.54-1.4 12.82-.17 14.23.2 28.47-.1 42.7-.43 20.16-4.26 39.66-12.33 58.27-1.87 4.3-4.34 2.27-7.08 1.56 4.27-30.73.6-62.12 10.66-92.03-.37-.12-.75-.25-1.12-.37-1.38 2.71-2.87 5.37-4.12 8.14-6.74 14.92-7.9 30.91-8.97 46.93-.81 12.13-1.95 24.23-2.95 36.37-5.93.54-11.2 1.03-17.09 1.57.58-44.29 15.13-82.92 44.51-115.96Zm-60.58 234.63c4.5.17 7.66 3.54 7.49 7.98-.15 3.99-3.74 7.07-8.08 6.94-4.48-.14-8.4-3.41-8.3-6.91.11-3.96 4.78-8.16 8.89-8Zm-22.89 14.42c1.46-1.36 2.68-3.15 3.32-2.96 1.45.42 2.61 1.83 3.89 2.83-1.3 1.22-2.5 2.59-3.99 3.49-.24.15-1.75-1.8-3.23-3.36Z"/>
</svg>
